HIERARCHY
ROOT root
{
	OFFSET	0	13.1	24.9
	CHANNELS 6  Xposition Yposition Zposition Xrotation Yrotation Zrotation
	JOINT spine_1
	{
		OFFSET	0	9.99999	0
		CHANNELS 3  Xrotation Yrotation Zrotation
		JOINT spine_2
		{
			OFFSET	0	112	-10
			CHANNELS 3  Xrotation Yrotation Zrotation
			JOINT spine_3
			{
				OFFSET	0	206.5	19.3
				CHANNELS 3  Xrotation Yrotation Zrotation
				JOINT spine_4
				{
					OFFSET	0	110.4	14.6
					CHANNELS 3  Xrotation Yrotation Zrotation
					JOINT neck_1
					{
						OFFSET	0	71.8	-50.3
						CHANNELS 3  Xrotation Yrotation Zrotation
						JOINT neck_2
						{
							OFFSET	0	86.2	-25.8
							CHANNELS 3  Xrotation Yrotation Zrotation
							JOINT head_ee
							{
								OFFSET	0	179.8	-8.7
								CHANNELS 3  Xrotation Yrotation Zrotation
								End Site
								{
									OFFSET	1	0	0
								}
							}
						}
					}
					JOINT left_clavicle
					{
						OFFSET	-43.2	22.4	-70.8
						CHANNELS 3  Xrotation Yrotation Zrotation
						JOINT left_shoulder
						{
							OFFSET	-93.9	-5.79999	48.7
							CHANNELS 3  Xrotation Yrotation Zrotation
							JOINT left_elbow
							{
								OFFSET	-291.4	-30.8	15.2
								CHANNELS 3  Xrotation Yrotation Zrotation
								JOINT left_lowarm_twist
								{
									OFFSET	-110.7	-3.89999	13.6
									CHANNELS 3  Xrotation Yrotation Zrotation
									JOINT left_hand
									{
										OFFSET	-110.7	-3.89999	13.6
										CHANNELS 3  Xrotation Yrotation Zrotation
										JOINT left_ee
										{
											OFFSET	-80.8	-5.10001	12.1
											CHANNELS 3  Xrotation Yrotation Zrotation
											End Site
											{
												OFFSET	1	0	0
											}
										}
									}
								}
							}
						}
					}
					JOINT right_clavicle
					{
						OFFSET	43.2	22.4	-70.8
						CHANNELS 3  Xrotation Yrotation Zrotation
						JOINT right_shoulder
						{
							OFFSET	93.9	-5.79999	48.7
							CHANNELS 3  Xrotation Yrotation Zrotation
							JOINT right_elbow
							{
								OFFSET	291.4	-30.8	15.2
								CHANNELS 3  Xrotation Yrotation Zrotation
								JOINT right_lowarm_twist
								{
									OFFSET	110.7	-3.89999	13.6
									CHANNELS 3  Xrotation Yrotation Zrotation
									JOINT right_hand
									{
										OFFSET	110.7	-3.89999	13.6
										CHANNELS 3  Xrotation Yrotation Zrotation
										JOINT right_ee
										{
											OFFSET	80.8	-5.10001	12.1
											CHANNELS 3  Xrotation Yrotation Zrotation
											End Site
											{
												OFFSET	1	0	0
											}
										}
									}
								}
							}
						}
					}
				}
			}
		}
	}
	JOINT left_hip
	{
		OFFSET	-82.8	-127.5	0.300001
		CHANNELS 3  Xrotation Yrotation Zrotation
		JOINT left_knee
		{
			OFFSET	-28.2	-396.7	2.2
			CHANNELS 3  Xrotation Yrotation Zrotation
			JOINT left_ankle
			{
				OFFSET	-11.7	-411.3	35.4
				CHANNELS 3  Xrotation Yrotation Zrotation
				JOINT left_toes
				{
					OFFSET	0	-60	-88.6
					CHANNELS 3  Xrotation Yrotation Zrotation
					JOINT left_foot_ee
					{
						OFFSET	-22.5	-16.5	-42.2
						CHANNELS 3  Xrotation Yrotation Zrotation
						End Site
						{
							OFFSET	1	0	0
						}
					}
				}
			}
		}
	}
	JOINT right_hip
	{
		OFFSET	82.8	-127.5	0.300001
		CHANNELS 3  Xrotation Yrotation Zrotation
		JOINT right_knee
		{
			OFFSET	28.2	-396.7	2.2
			CHANNELS 3  Xrotation Yrotation Zrotation
			JOINT right_ankle
			{
				OFFSET	11.7	-411.3	35.4
				CHANNELS 3  Xrotation Yrotation Zrotation
				JOINT right_toes
				{
					OFFSET	0	-60	-88.6
					CHANNELS 3  Xrotation Yrotation Zrotation
					JOINT right_foot_ee
					{
						OFFSET	22.5	-16.5	-42.2
						CHANNELS 3  Xrotation Yrotation Zrotation
						End Site
						{
							OFFSET	1	0	0
						}
					}
				}
			}
		}
	}
}
MOTION
Frames: 16
Frame Time: 0.02
3177.02 653.055 -1669.29 -8.55957829704 52.5086902021 5.32316183883 0.526306 0.920666 2.79417 0.530344 0.741075 2.84703 0.569366 0.155812 2.9377 0.557855 0.617618 2.87631 -2.68147 16.7173 -9.41519 -1.44698 37.5975 -7.87008 -0.0 0.0 -0.0 -4.03151 16.6336 -4.36494 -19.6009 -13.38 79.0627 0.315104 -8.87209 0.0244454 -42.7603 -3.24939 4.25179 2.65573 15.3861 23.4338 -0.0 0.0 -0.0 13.5552 27.1898 -26.8154 9.32158 39.0743 -58.7742 2.06391 45.6291 -0.868281 -8.2796 0.364214 -0.992935 -4.44629 7.11407 35.1727 0.0 0.0 0.0 28.2214 -10.4404 -9.88423 0.89682 -0.0379673 -0.132383 -0.13493 18.6334 0.0200701 -29.6634 0.0 0.0 -0.0 0.0 -0.0 -8.70755 -8.7764 5.51896 -12.3664 -0.308483 -1.86906 33.9277 22.3125 4.85806 16.8933 -0.0 -0.0 0.0 0.0 0.0 
3137.09931414 656.139 -1676.17611214 -9.60686630684 51.1719790664 7.30631243862 0.595688 0.678825 2.7149 0.599647 0.50476 2.75255 0.625669 -0.0543248 2.79789 0.614955 0.388059 2.7714 -1.08712 17.5218 -8.9535 0.491356 38.5637 -7.94551 -0.0 0.0 -0.0 -3.51212 15.3687 -3.80718 -17.4963 -13.4967 78.6644 0.382313 -10.7243 0.0358844 -43.3395 -3.31312 4.29006 2.67295 15.5852 23.6103 -0.0 0.0 -0.0 13.5403 27.4705 -26.7441 8.39806 38.2304 -60.1862 1.94271 43.8965 -0.78293 -8.14244 0.35702 -0.976936 -4.56411 5.9809 35.5478 0.0 0.0 0.0 27.858 -10.1613 -10.4476 -1.54483 0.0605184 0.229345 -0.0925817 19.1586 0.0137931 -29.1444 0.0 0.0 -0.0 0.0 -0.0 -9.23459 -8.60498 5.81522 -13.4701 -0.316272 -2.03822 35.17 23.8763 5.06325 16.7299 -0.0 -0.0 0.0 0.0 0.0 
3117.22445127 659.367 -1680.44414056 -9.40214325097 50.4877048663 6.92886845075 0.792783 0.650142 2.66333 0.796601 0.479414 2.69927 0.820652 -0.0592251 2.74084 0.810365 0.37422 2.71584 -0.338431 17.025 -8.19976 1.19966 37.0086 -7.40776 -0.0 0.0 -0.0 -3.59594 15.0985 -3.99883 -16.8517 -13.6981 78.4682 0.401346 -11.2448 0.0395111 -43.76 -3.35962 4.31744 2.76917 15.6262 24.2817 -0.0 0.0 -0.0 13.6375 27.7177 -26.9364 7.4421 38.0084 -61.052 1.76572 41.172 -0.663244 -8.10343 0.35498 -0.972382 -4.47817 5.60283 34.6381 0.0 0.0 0.0 27.8274 -9.9478 -9.89331 -4.89452 0.170351 0.731619 0.0514163 19.2833 -0.00766094 -29.0833 0.0 0.0 -0.0 0.0 -0.0 -9.46216 -8.16749 6.90618 -14.1061 -0.31928 -2.13576 33.5233 23.6178 4.8745 15.7149 -0.0 -0.0 0.0 0.0 0.0 
3089.33018215 661.472 -1683.17492154 -9.99342351717 49.1381868854 7.45915842798 1.14069 0.585949 2.47116 1.14399 0.427566 2.50341 1.16357 -0.0564874 2.53901 1.15474 0.345081 2.5161 0.811225 16.5607 -6.62232 2.24368 34.7891 -6.03382 -0.0 0.0 -0.0 -3.33379 14.8491 -3.62494 -15.9866 -13.8261 78.1318 0.428445 -11.9828 0.0449666 -43.8994 -3.37508 4.32644 2.93756 16.2272 25.6157 -0.0 0.0 -0.0 13.6062 27.7884 -26.8544 5.07373 37.4818 -62.0478 1.62542 38.8375 -0.573032 -8.10769 0.355203 -0.97288 -4.38349 4.86186 33.4718 0.0 0.0 0.0 27.2646 -9.97695 -9.44418 -5.63891 0.190756 0.844035 2.85708 19.8769 -0.423733 -28.4675 0.0 0.0 -0.0 0.0 -0.0 -9.90093 -7.39106 7.53888 -12.9376 -0.312921 -1.95659 31.4216 22.1854 4.57652 13.2482 -0.0 -0.0 0.0 0.0 0.0 
3015.73821756 670.414 -1693.2485069 -9.92987550057 47.6556042592 6.86323055684 1.22089 0.343383 2.27629 1.22375 0.19788 2.29351 1.23223 -0.239475 2.28954 1.22493 0.125023 2.29863 2.90096 16.2257 -1.43131 3.90435 29.5871 -0.68285 -0.0 0.0 -0.0 -2.67826 14.2191 -2.67881 -13.4203 -14.2992 76.3581 0.638068 -17.5408 0.0984416 -46.4786 -3.665 4.48618 2.74506 18.3675 24.8857 -0.0 0.0 -0.0 13.5335 26.8016 -26.8148 -0.694682 34.9942 -62.9119 1.24599 31.6827 -0.353565 -9.11201 0.408702 -1.08967 -4.11872 6.04658 31.9728 0.0 0.0 0.0 25.7619 -8.44769 -6.41898 -10.5481 0.28855 1.59078 17.0258 18.2661 -2.39852 -33.0398 0.0 0.0 -0.0 0.0 -0.0 -9.63275 -1.2822 10.4907 -17.781 -0.315451 -2.69949 27.9991 14.9351 3.93754 8.35693 -0.0 -0.0 0.0 0.0 0.0 
2991.45532926 671.975 -1700.72236344 -9.37320087263 47.3499897861 5.4286922491 1.06001 0.292582 2.27643 1.06288 0.147172 2.29042 1.0694 -0.295195 2.27609 1.06218 0.067878 2.29414 3.70288 16.4254 0.0143812 4.65144 28.5446 0.814417 -0.0 0.0 -0.0 -2.70816 13.5033 -2.85969 -11.3565 -14.7735 75.5171 0.727538 -19.8192 0.127103 -47.7488 -3.81033 4.56001 2.7614 18.7182 25.0902 -0.0 0.0 -0.0 13.4209 26.6267 -26.5757 -2.72233 34.2061 -62.5648 1.10601 28.7168 -0.283128 -9.01814 0.403615 -1.07879 -4.00285 5.33459 30.6921 0.0 0.0 0.0 24.2078 -7.92566 -3.87057 -11.3966 0.298951 1.72057 20.0721 18.9711 -2.79913 -33.4331 0.0 0.0 -0.0 0.0 -0.0 -9.59432 2.56242 11.2752 -21.2081 -0.279324 -3.22401 31.3526 11.3893 4.22246 8.53524 -0.0 -0.0 0.0 0.0 0.0 
2991.68041713 671.975 -1702.02346181 -9.30288405156 46.9533414518 5.33278312346 1.06001 0.292582 2.27643 1.06288 0.147172 2.29042 1.0694 -0.295195 2.27609 1.06218 0.067878 2.29414 3.70288 16.4254 0.0143812 4.65144 28.5446 0.814417 -0.0 0.0 -0.0 -2.70816 13.5033 -2.85969 -11.3565 -14.7735 75.5171 0.727538 -19.8192 0.127103 -47.7488 -3.81033 4.56001 2.7614 18.7182 25.0902 -0.0 0.0 -0.0 13.4209 26.6267 -26.5757 -2.72233 34.2061 -62.5648 1.10601 28.7168 -0.283128 -9.01814 0.403615 -1.07879 -4.00285 5.33459 30.6921 0.0 0.0 0.0 24.2078 -7.92566 -3.87057 -11.3966 0.298951 1.72057 20.0721 18.9711 -2.79913 -33.4331 0.0 0.0 -0.0 0.0 -0.0 -9.59432 2.56242 11.2752 -21.2081 -0.279324 -3.22401 31.3526 11.3893 4.22246 8.53524 -0.0 -0.0 0.0 0.0 0.0 
2991.93671943 671.975 -1703.44288792 -9.22776422964 46.5199680236 5.22962725485 1.06001 0.292582 2.27643 1.06288 0.147172 2.29042 1.0694 -0.295195 2.27609 1.06218 0.067878 2.29414 3.70288 16.4254 0.0143812 4.65144 28.5446 0.814417 -0.0 0.0 -0.0 -2.70816 13.5033 -2.85969 -11.3565 -14.7735 75.5171 0.727538 -19.8192 0.127103 -47.7488 -3.81033 4.56001 2.7614 18.7182 25.0902 -0.0 0.0 -0.0 13.4209 26.6267 -26.5757 -2.72233 34.2061 -62.5648 1.10601 28.7168 -0.283128 -9.01814 0.403615 -1.07879 -4.00285 5.33459 30.6921 0.0 0.0 0.0 24.2078 -7.92566 -3.87057 -11.3966 0.298951 1.72057 20.0721 18.9711 -2.79913 -33.4331 0.0 0.0 -0.0 0.0 -0.0 -9.59432 2.56242 11.2752 -21.2081 -0.279324 -3.22401 31.3526 11.3893 4.22246 8.53524 -0.0 -0.0 0.0 0.0 0.0 
2974.19964751 674.388 -1710.63452343 -8.23269745414 45.3956707093 3.51557094689 1.00724 0.328208 2.41644 1.01048 0.173825 2.43241 1.01863 -0.298438 2.42029 1.01047 0.08743 2.43705 4.11719 17.0969 1.94062 5.00867 27.9721 2.96959 -0.0 0.0 -0.0 -2.43867 13.6284 -2.39247 -10.604 -14.7975 74.0862 0.742249 -20.1879 0.132135 -49.1623 -3.97394 4.63837 2.6208 19.0528 24.2336 -0.0 0.0 -0.0 13.2986 26.59 -26.2966 -5.07299 33.8824 -61.897 1.01 26.5794 -0.238569 -8.8588 0.39502 -1.06031 -3.75967 6.09072 29.1845 0.0 0.0 0.0 22.8322 -8.02923 -1.70656 -13.0679 0.313812 1.97657 26.3614 18.4746 -3.5638 -33.3224 0.0 0.0 -0.0 0.0 -0.0 -9.70526 5.29351 11.5026 -24.0005 -0.226736 -3.64924 31.4085 7.10108 4.14366 6.99278 -0.0 -0.0 0.0 0.0 0.0 
2952.86830415 679.666 -1717.78128219 -6.91910913192 44.9410921158 1.92560179687 0.730007 0.174257 2.33697 0.733045 0.0252379 2.34332 0.734895 -0.438575 2.30207 0.727507 -0.0696052 2.34242 3.71431 17.1537 3.20046 4.50026 27.0962 4.48155 -0.0 0.0 -0.0 -2.48564 12.6896 -2.63713 -7.81158 -14.4183 73.3814 0.849806 -22.8294 0.171581 -50.0859 -4.08186 4.68739 2.53057 19.3036 23.6995 -0.0 0.0 -0.0 13.1274 26.4718 -25.915 -7.81851 32.8508 -61.5266 0.9427 25.0315 -0.209268 -9.75646 0.444109 -1.16411 -3.63289 6.21588 28.2722 0.0 0.0 0.0 20.9799 -9.05527 0.736278 -12.8799 0.312512 1.94775 29.9504 18.0184 -3.96717 -33.411 0.0 0.0 -0.0 0.0 -0.0 -10.2674 11.4751 11.9014 -26.6156 -0.158748 -4.04476 32.541 2.70464 4.20005 6.3262 -0.0 -0.0 0.0 0.0 0.0 
2931.92770331 683.113 -1722.72645296 -5.2149825346 45.113891756 -0.293379486014 0.5804 0.116102 2.47457 0.583806 -0.0415469 2.47694 0.582982 -0.536965 2.41843 0.574851 -0.148403 2.47284 1.71188 17.3826 3.88162 2.38467 27.4692 5.57579 -0.0 0.0 -0.0 -2.37806 12.0094 -2.57633 -5.87192 -14.1836 72.8823 0.927579 -24.6782 0.202912 -50.7831 -4.16383 4.72323 2.37185 18.6671 22.4724 -0.0 0.0 -0.0 12.9721 25.7358 -25.6434 -10.221 32.4987 -61.6989 0.881643 23.5926 -0.184129 -10.7716 0.501578 -1.28056 -3.60707 6.40346 28.1674 0.0 0.0 0.0 19.4052 -11.4497 3.45628 -13.3401 0.315524 2.0183 32.4356 17.7868 -4.23348 -33.5714 0.0 0.0 -0.0 0.0 -0.0 -10.6232 16.1969 11.3756 -29.7632 -0.0530637 -4.51621 32.6869 -0.771703 4.18467 5.79948 -0.0 -0.0 0.0 0.0 0.0 
2910.32330932 688.666 -1724.8255713 -3.70953814585 45.5526456303 -1.82038390471 0.306216 -0.0703927 2.51297 0.3097 -0.230106 2.50341 0.300653 -0.739027 2.40294 0.292766 -0.350377 2.48944 1.11959 16.8045 4.78712 1.67765 25.8418 6.63381 -0.0 0.0 -0.0 -1.91838 11.2398 -1.92698 -4.64905 -13.9871 71.5436 0.972156 -25.714 0.221891 -50.6774 -4.15137 4.71786 2.55906 17.8215 23.4816 -0.0 0.0 -0.0 12.9672 25.9673 -25.6052 -12.3541 31.7109 -61.3341 0.835358 22.4802 -0.166016 -11.3716 0.536516 -1.34891 -3.41545 6.56474 26.7903 0.0 0.0 0.0 16.923 -11.0716 5.33128 -13.4012 0.315881 2.02766 35.1979 18.5409 -4.5328 -33.8622 0.0 0.0 -0.0 0.0 -0.0 -7.76133 21.5836 8.38971 -39.3944 0.428689 -5.91333 34.7857 -3.41796 4.38071 5.14965 -0.0 -0.0 0.0 0.0 0.0 
2889.07238699 690.472 -1729.70369267 -2.06760026318 45.1895444051 -2.63865824671 0.188752 0.066221 2.48656 0.192188 -0.0920899 2.48574 0.189445 -0.604887 2.41282 0.181386 -0.216359 2.47802 2.14671 16.9024 3.67046 2.80517 26.6748 5.24711 -0.0 0.0 -0.0 -1.71933 10.4229 -1.71709 -1.45989 -13.5724 69.9291 1.03284 -27.0955 0.248881 -51.5801 -4.25808 4.76298 2.24164 19.5535 21.8661 -0.0 0.0 -0.0 13.0102 24.9472 -25.8204 -15.4717 30.9607 -61.0599 0.780504 21.1384 -0.145635 -11.1513 0.523609 -1.32387 -3.37125 6.18779 26.274 0.0 0.0 0.0 13.4456 -11.8406 5.6597 -12.6876 0.311086 1.91827 37.0431 18.0931 -4.70796 -33.1128 0.0 0.0 -0.0 0.0 -0.0 -7.91829 23.6427 7.15661 -41.3907 0.557603 -6.19185 33.2669 -6.24264 4.22724 4.95833 -0.0 -0.0 0.0 0.0 0.0 
2869.92305542 699.284 -1732.8251338 0.00754512402915 44.7794723009 -4.46366362114 -0.106591 0.319194 2.76218 -0.102358 0.142852 2.77688 -0.0932261 -0.448726 2.74413 -0.103734 -0.00988492 2.78053 1.5092 16.6801 2.58748 2.16651 27.3491 4.14063 -0.0 0.0 -0.0 -1.81709 10.521 -1.86967 0.352747 -13.1512 68.8372 1.06512 -27.8167 0.263763 -53.0083 -4.42827 4.83091 1.73056 19.3349 18.5097 -0.0 0.0 -0.0 12.734 23.0724 -25.3724 -17.5147 30.7754 -61.144 0.740072 20.1334 -0.131385 -11.3278 0.533943 -1.34394 -3.42412 5.53114 26.3503 0.0 0.0 0.0 8.53678 -13.0718 6.87121 -9.26852 0.269234 1.3954 40.3094 17.7772 -5.0089 -34.2189 0.0 0.0 -0.0 0.0 -0.0 -6.33937 27.3801 8.1421 -46.7312 0.949549 -6.91358 32.8154 -5.46248 4.18157 2.7097 -0.0 -0.0 0.0 0.0 0.0 
2830.71089066 699.042 -1733.71626862 3.12612421442 45.1934108927 -7.94421235825 -0.525795 0.690136 3.15162 -0.520402 0.488296 3.1891 -0.489195 -0.220341 3.2187 -0.503533 0.290489 3.21313 -0.445704 16.3335 1.94346 0.088342 27.7131 3.78632 -0.0 0.0 -0.0 -1.44855 8.57261 -1.5304 3.61609 -14.3683 64.9146 1.16991 -30.0929 0.314502 -55.0007 -4.66839 4.91855 0.994622 19.059 13.8003 -0.0 0.0 -0.0 12.2814 19.4079 -24.6218 -20.6888 30.3311 -61.213 0.683222 18.6984 -0.112486 -11.7408 0.55837 -1.39079 -3.40548 5.00132 25.9489 0.0 0.0 0.0 3.24477 -15.0585 9.92858 -5.69589 0.192258 0.85265 41.7395 19.4866 -5.17385 -35.5928 0.0 0.0 -0.0 0.0 -0.0 -4.85043 31.3867 6.74661 -54.7934 1.66477 -7.9274 31.125 -7.14123 4.0079 -0.143378 0.0 0.0 0.0 0.0 0.0 
2814.91148411 704.014 -1735.21997208 5.26923366699 44.9264850518 -9.73079151087 -0.877213 0.80669 3.23516 -0.87159 0.599307 3.27987 -0.83229 -0.151651 3.33066 -0.847572 0.375974 3.31287 -2.66936 16.4884 2.46004 -2.30128 28.0722 4.81987 -0.0 0.0 -0.0 -1.20229 8.23296 -1.14581 5.78613 -14.6731 62.8054 1.20905 -30.9174 0.334373 -56.4918 -4.84996 4.97864 0.322452 19.0102 9.65389 -0.0 0.0 -0.0 12.5091 18.6253 -25.197 -21.6154 30.1725 -61.0002 0.458978 12.8094 -0.0515211 -11.4474 0.540984 -1.35753 -3.32022 6.37679 25.9825 0.0 0.0 0.0 0.514599 -18.0187 10.147 -4.87134 0.169693 0.728123 41.9287 22.119 -5.25913 -35.4125 0.0 0.0 -0.0 0.0 -0.0 0.122635 31.8202 5.04679 -58.1925 2.008 -8.3233 30.9004 -7.7122 3.98524 -2.7112 0.0 0.0 0.0 0.0 0.0 
